<mxfile host="app.diagrams.net" modified="2023-06-03T19:12:13.112Z" agent="Mozilla/5.0 (Windows NT 10.0; Win64; x64) AppleWebKit/537.36 (KHTML, like Gecko) Chrome/113.0.0.0 Safari/537.36 OPR/99.0.0.0" etag="PBtxIweyW2An3jEOGkRi" version="21.3.7" type="device">
  <diagram name="Page-1" id="2YBvvXClWsGukQMizWep">
    <mxGraphModel dx="1188" dy="760" grid="1" gridSize="10" guides="1" tooltips="1" connect="1" arrows="1" fold="1" page="1" pageScale="1" pageWidth="850" pageHeight="1100" math="0" shadow="0">
      <root>
        <mxCell id="0" />
        <mxCell id="1" parent="0" />
        <mxCell id="knjNOMbDAPtipr0nxzrU-97" value="" style="endArrow=none;dashed=1;html=1;rounded=0;entryX=0.49;entryY=0.448;entryDx=0;entryDy=0;entryPerimeter=0;" edge="1" parent="1" source="aM9ryv3xv72pqoxQDRHE-1" target="knjNOMbDAPtipr0nxzrU-103">
          <mxGeometry width="50" height="50" relative="1" as="geometry">
            <mxPoint x="160" y="800" as="sourcePoint" />
            <mxPoint x="530" y="710" as="targetPoint" />
            <Array as="points">
              <mxPoint x="410" y="780" />
              <mxPoint x="410" y="690" />
              <mxPoint x="410" y="90" />
              <mxPoint x="530" y="90" />
            </Array>
          </mxGeometry>
        </mxCell>
        <mxCell id="knjNOMbDAPtipr0nxzrU-95" value="" style="html=1;points=[];perimeter=orthogonalPerimeter;outlineConnect=0;targetShapes=umlLifeline;portConstraint=eastwest;newEdgeStyle={&quot;edgeStyle&quot;:&quot;elbowEdgeStyle&quot;,&quot;elbow&quot;:&quot;vertical&quot;,&quot;curved&quot;:0,&quot;rounded&quot;:0};" vertex="1" parent="1">
          <mxGeometry x="525" y="100" width="10" height="670" as="geometry" />
        </mxCell>
        <mxCell id="aM9ryv3xv72pqoxQDRHE-1" value="Beholder" style="shape=umlLifeline;perimeter=lifelinePerimeter;whiteSpace=wrap;html=1;container=0;dropTarget=0;collapsible=0;recursiveResize=0;outlineConnect=0;portConstraint=eastwest;newEdgeStyle={&quot;edgeStyle&quot;:&quot;elbowEdgeStyle&quot;,&quot;elbow&quot;:&quot;vertical&quot;,&quot;curved&quot;:0,&quot;rounded&quot;:0};" parent="1" vertex="1">
          <mxGeometry x="110" y="40" width="100" height="740" as="geometry" />
        </mxCell>
        <mxCell id="knjNOMbDAPtipr0nxzrU-70" value="" style="html=1;points=[];perimeter=orthogonalPerimeter;outlineConnect=0;targetShapes=umlLifeline;portConstraint=eastwest;newEdgeStyle={&quot;edgeStyle&quot;:&quot;elbowEdgeStyle&quot;,&quot;elbow&quot;:&quot;vertical&quot;,&quot;curved&quot;:0,&quot;rounded&quot;:0};" vertex="1" parent="aM9ryv3xv72pqoxQDRHE-1">
          <mxGeometry x="45" y="530" width="10" height="200" as="geometry" />
        </mxCell>
        <mxCell id="aM9ryv3xv72pqoxQDRHE-2" value="" style="html=1;points=[];perimeter=orthogonalPerimeter;outlineConnect=0;targetShapes=umlLifeline;portConstraint=eastwest;newEdgeStyle={&quot;edgeStyle&quot;:&quot;elbowEdgeStyle&quot;,&quot;elbow&quot;:&quot;vertical&quot;,&quot;curved&quot;:0,&quot;rounded&quot;:0};" parent="aM9ryv3xv72pqoxQDRHE-1" vertex="1">
          <mxGeometry x="45" y="70" width="10" height="90" as="geometry" />
        </mxCell>
        <mxCell id="aM9ryv3xv72pqoxQDRHE-3" value="Event: Installation" style="html=1;verticalAlign=bottom;startArrow=oval;endArrow=block;startSize=8;edgeStyle=elbowEdgeStyle;elbow=vertical;curved=0;rounded=0;" parent="aM9ryv3xv72pqoxQDRHE-1" target="aM9ryv3xv72pqoxQDRHE-2" edge="1">
          <mxGeometry x="-1" y="10" relative="1" as="geometry">
            <mxPoint x="-60" y="70" as="sourcePoint" />
            <mxPoint as="offset" />
          </mxGeometry>
        </mxCell>
        <mxCell id="knjNOMbDAPtipr0nxzrU-2" value="" style="html=1;points=[];perimeter=orthogonalPerimeter;outlineConnect=0;targetShapes=umlLifeline;portConstraint=eastwest;newEdgeStyle={&quot;edgeStyle&quot;:&quot;elbowEdgeStyle&quot;,&quot;elbow&quot;:&quot;vertical&quot;,&quot;curved&quot;:0,&quot;rounded&quot;:0};" vertex="1" parent="aM9ryv3xv72pqoxQDRHE-1">
          <mxGeometry x="50" y="100" width="10" height="40" as="geometry" />
        </mxCell>
        <mxCell id="knjNOMbDAPtipr0nxzrU-3" value="noPermissions = CheckLocalPermissions()" style="html=1;align=left;spacingLeft=2;endArrow=block;rounded=0;edgeStyle=orthogonalEdgeStyle;curved=0;rounded=0;" edge="1" target="knjNOMbDAPtipr0nxzrU-2" parent="aM9ryv3xv72pqoxQDRHE-1">
          <mxGeometry relative="1" as="geometry">
            <mxPoint x="55" y="80" as="sourcePoint" />
            <Array as="points">
              <mxPoint x="85" y="110" />
            </Array>
          </mxGeometry>
        </mxCell>
        <mxCell id="knjNOMbDAPtipr0nxzrU-12" value="" style="html=1;points=[];perimeter=orthogonalPerimeter;outlineConnect=0;targetShapes=umlLifeline;portConstraint=eastwest;newEdgeStyle={&quot;edgeStyle&quot;:&quot;elbowEdgeStyle&quot;,&quot;elbow&quot;:&quot;vertical&quot;,&quot;curved&quot;:0,&quot;rounded&quot;:0};" vertex="1" parent="aM9ryv3xv72pqoxQDRHE-1">
          <mxGeometry x="45" y="200" width="10" height="90" as="geometry" />
        </mxCell>
        <mxCell id="knjNOMbDAPtipr0nxzrU-13" value="" style="html=1;points=[];perimeter=orthogonalPerimeter;outlineConnect=0;targetShapes=umlLifeline;portConstraint=eastwest;newEdgeStyle={&quot;edgeStyle&quot;:&quot;elbowEdgeStyle&quot;,&quot;elbow&quot;:&quot;vertical&quot;,&quot;curved&quot;:0,&quot;rounded&quot;:0};" vertex="1" parent="aM9ryv3xv72pqoxQDRHE-1">
          <mxGeometry x="50" y="230" width="10" height="40" as="geometry" />
        </mxCell>
        <mxCell id="knjNOMbDAPtipr0nxzrU-14" value="noMemory = checkMemory()" style="html=1;align=left;spacingLeft=2;endArrow=block;rounded=0;edgeStyle=orthogonalEdgeStyle;curved=0;rounded=0;" edge="1" parent="aM9ryv3xv72pqoxQDRHE-1" target="knjNOMbDAPtipr0nxzrU-13">
          <mxGeometry relative="1" as="geometry">
            <mxPoint x="55" y="210" as="sourcePoint" />
            <Array as="points">
              <mxPoint x="85" y="240" />
            </Array>
          </mxGeometry>
        </mxCell>
        <mxCell id="knjNOMbDAPtipr0nxzrU-21" value="" style="html=1;points=[];perimeter=orthogonalPerimeter;outlineConnect=0;targetShapes=umlLifeline;portConstraint=eastwest;newEdgeStyle={&quot;edgeStyle&quot;:&quot;elbowEdgeStyle&quot;,&quot;elbow&quot;:&quot;vertical&quot;,&quot;curved&quot;:0,&quot;rounded&quot;:0};" vertex="1" parent="aM9ryv3xv72pqoxQDRHE-1">
          <mxGeometry x="45" y="330" width="10" height="160" as="geometry" />
        </mxCell>
        <mxCell id="knjNOMbDAPtipr0nxzrU-22" value="" style="html=1;points=[];perimeter=orthogonalPerimeter;outlineConnect=0;targetShapes=umlLifeline;portConstraint=eastwest;newEdgeStyle={&quot;edgeStyle&quot;:&quot;elbowEdgeStyle&quot;,&quot;elbow&quot;:&quot;vertical&quot;,&quot;curved&quot;:0,&quot;rounded&quot;:0};" vertex="1" parent="aM9ryv3xv72pqoxQDRHE-1">
          <mxGeometry x="50" y="360" width="10" height="40" as="geometry" />
        </mxCell>
        <mxCell id="knjNOMbDAPtipr0nxzrU-26" value="" style="html=1;points=[];perimeter=orthogonalPerimeter;outlineConnect=0;targetShapes=umlLifeline;portConstraint=eastwest;newEdgeStyle={&quot;edgeStyle&quot;:&quot;elbowEdgeStyle&quot;,&quot;elbow&quot;:&quot;vertical&quot;,&quot;curved&quot;:0,&quot;rounded&quot;:0};" vertex="1" parent="aM9ryv3xv72pqoxQDRHE-1">
          <mxGeometry x="50" y="590" width="10" height="40" as="geometry" />
        </mxCell>
        <mxCell id="knjNOMbDAPtipr0nxzrU-23" value="GenerateVirtualTable()" style="html=1;align=left;spacingLeft=2;endArrow=block;rounded=0;edgeStyle=orthogonalEdgeStyle;curved=0;rounded=0;" edge="1" parent="aM9ryv3xv72pqoxQDRHE-1" target="knjNOMbDAPtipr0nxzrU-22">
          <mxGeometry relative="1" as="geometry">
            <mxPoint x="55" y="340" as="sourcePoint" />
            <Array as="points">
              <mxPoint x="85" y="370" />
            </Array>
          </mxGeometry>
        </mxCell>
        <mxCell id="knjNOMbDAPtipr0nxzrU-27" value="neighboors = NeighboorLookUp()" style="html=1;align=left;spacingLeft=2;endArrow=block;rounded=0;edgeStyle=orthogonalEdgeStyle;curved=0;rounded=0;" edge="1" parent="aM9ryv3xv72pqoxQDRHE-1" target="knjNOMbDAPtipr0nxzrU-26">
          <mxGeometry relative="1" as="geometry">
            <mxPoint x="55" y="570" as="sourcePoint" />
            <Array as="points">
              <mxPoint x="85" y="600" />
            </Array>
          </mxGeometry>
        </mxCell>
        <mxCell id="knjNOMbDAPtipr0nxzrU-66" value="" style="html=1;points=[];perimeter=orthogonalPerimeter;outlineConnect=0;targetShapes=umlLifeline;portConstraint=eastwest;newEdgeStyle={&quot;edgeStyle&quot;:&quot;elbowEdgeStyle&quot;,&quot;elbow&quot;:&quot;vertical&quot;,&quot;curved&quot;:0,&quot;rounded&quot;:0};" vertex="1" parent="aM9ryv3xv72pqoxQDRHE-1">
          <mxGeometry x="50" y="430" width="10" height="40" as="geometry" />
        </mxCell>
        <mxCell id="knjNOMbDAPtipr0nxzrU-67" value="noSuccess = runUnitTests()" style="html=1;align=left;spacingLeft=2;endArrow=block;rounded=0;edgeStyle=orthogonalEdgeStyle;curved=0;rounded=0;" edge="1" parent="aM9ryv3xv72pqoxQDRHE-1" target="knjNOMbDAPtipr0nxzrU-66">
          <mxGeometry relative="1" as="geometry">
            <mxPoint x="55" y="410" as="sourcePoint" />
            <Array as="points">
              <mxPoint x="85" y="440" />
            </Array>
          </mxGeometry>
        </mxCell>
        <mxCell id="knjNOMbDAPtipr0nxzrU-69" value="" style="shape=umlDestroy;whiteSpace=wrap;html=1;strokeWidth=3;targetShapes=umlLifeline;" vertex="1" parent="aM9ryv3xv72pqoxQDRHE-1">
          <mxGeometry x="35" y="490" width="30" height="30" as="geometry" />
        </mxCell>
        <mxCell id="knjNOMbDAPtipr0nxzrU-4" value="if noPermissions" style="shape=umlFrame;whiteSpace=wrap;html=1;pointerEvents=0;width=110;height=15;" vertex="1" parent="1">
          <mxGeometry x="40" y="190" width="140" height="50" as="geometry" />
        </mxCell>
        <mxCell id="knjNOMbDAPtipr0nxzrU-11" value="" style="shape=umlDestroy;whiteSpace=wrap;html=1;strokeWidth=3;targetShapes=umlLifeline;" vertex="1" parent="1">
          <mxGeometry x="145" y="200" width="30" height="30" as="geometry" />
        </mxCell>
        <mxCell id="knjNOMbDAPtipr0nxzrU-19" value="if noMemory" style="shape=umlFrame;whiteSpace=wrap;html=1;pointerEvents=0;width=80;height=15;" vertex="1" parent="1">
          <mxGeometry x="70" y="320" width="110" height="50" as="geometry" />
        </mxCell>
        <mxCell id="knjNOMbDAPtipr0nxzrU-20" value="" style="shape=umlDestroy;whiteSpace=wrap;html=1;strokeWidth=3;targetShapes=umlLifeline;" vertex="1" parent="1">
          <mxGeometry x="145" y="330" width="30" height="30" as="geometry" />
        </mxCell>
        <mxCell id="knjNOMbDAPtipr0nxzrU-62" value="Logs the problem and generate the installation log" style="shape=callout;whiteSpace=wrap;html=1;perimeter=calloutPerimeter;position2=0;size=30;position=0.07;" vertex="1" parent="1">
          <mxGeometry x="190" y="160" width="140" height="70" as="geometry" />
        </mxCell>
        <mxCell id="knjNOMbDAPtipr0nxzrU-63" value="Logs the problem and generate the installation log" style="shape=callout;whiteSpace=wrap;html=1;perimeter=calloutPerimeter;position2=0;size=30;position=0.07;" vertex="1" parent="1">
          <mxGeometry x="190" y="290" width="140" height="70" as="geometry" />
        </mxCell>
        <mxCell id="knjNOMbDAPtipr0nxzrU-68" value="if noSuccess" style="shape=umlFrame;whiteSpace=wrap;html=1;pointerEvents=0;width=90;height=15;" vertex="1" parent="1">
          <mxGeometry x="60" y="520" width="120" height="50" as="geometry" />
        </mxCell>
        <mxCell id="knjNOMbDAPtipr0nxzrU-71" value="Logs the problem and generate the installation log" style="shape=callout;whiteSpace=wrap;html=1;perimeter=calloutPerimeter;position2=0;size=30;position=0.07;" vertex="1" parent="1">
          <mxGeometry x="190" y="490" width="140" height="70" as="geometry" />
        </mxCell>
        <mxCell id="knjNOMbDAPtipr0nxzrU-72" value="" style="html=1;points=[];perimeter=orthogonalPerimeter;outlineConnect=0;targetShapes=umlLifeline;portConstraint=eastwest;newEdgeStyle={&quot;edgeStyle&quot;:&quot;elbowEdgeStyle&quot;,&quot;elbow&quot;:&quot;vertical&quot;,&quot;curved&quot;:0,&quot;rounded&quot;:0};" vertex="1" parent="1">
          <mxGeometry x="530" y="130" width="10" height="40" as="geometry" />
        </mxCell>
        <mxCell id="knjNOMbDAPtipr0nxzrU-73" value="setPreferenceConnections&lt;br&gt;(transferSpeeds)" style="html=1;align=left;spacingLeft=2;endArrow=block;rounded=0;edgeStyle=orthogonalEdgeStyle;curved=0;rounded=0;" edge="1" parent="1" target="knjNOMbDAPtipr0nxzrU-72">
          <mxGeometry relative="1" as="geometry">
            <mxPoint x="535" y="110" as="sourcePoint" />
            <Array as="points">
              <mxPoint x="565" y="140" />
            </Array>
          </mxGeometry>
        </mxCell>
        <mxCell id="knjNOMbDAPtipr0nxzrU-74" value="neighboors&amp;nbsp; = getCloseVirtualTable()" style="html=1;align=left;spacingLeft=2;endArrow=block;rounded=0;edgeStyle=orthogonalEdgeStyle;curved=0;rounded=0;" edge="1" parent="1" target="knjNOMbDAPtipr0nxzrU-75">
          <mxGeometry relative="1" as="geometry">
            <mxPoint x="535" y="180" as="sourcePoint" />
            <Array as="points">
              <mxPoint x="565" y="210" />
            </Array>
          </mxGeometry>
        </mxCell>
        <mxCell id="knjNOMbDAPtipr0nxzrU-75" value="" style="html=1;points=[];perimeter=orthogonalPerimeter;outlineConnect=0;targetShapes=umlLifeline;portConstraint=eastwest;newEdgeStyle={&quot;edgeStyle&quot;:&quot;elbowEdgeStyle&quot;,&quot;elbow&quot;:&quot;vertical&quot;,&quot;curved&quot;:0,&quot;rounded&quot;:0};" vertex="1" parent="1">
          <mxGeometry x="530" y="200" width="10" height="40" as="geometry" />
        </mxCell>
        <mxCell id="knjNOMbDAPtipr0nxzrU-76" value="" style="html=1;points=[];perimeter=orthogonalPerimeter;outlineConnect=0;targetShapes=umlLifeline;portConstraint=eastwest;newEdgeStyle={&quot;edgeStyle&quot;:&quot;elbowEdgeStyle&quot;,&quot;elbow&quot;:&quot;vertical&quot;,&quot;curved&quot;:0,&quot;rounded&quot;:0};" vertex="1" parent="1">
          <mxGeometry x="530" y="610" width="10" height="30" as="geometry" />
        </mxCell>
        <mxCell id="knjNOMbDAPtipr0nxzrU-77" value="GenInstallatonLog()" style="html=1;align=left;spacingLeft=2;endArrow=block;rounded=0;edgeStyle=orthogonalEdgeStyle;curved=0;rounded=0;" edge="1" parent="1" target="knjNOMbDAPtipr0nxzrU-76">
          <mxGeometry relative="1" as="geometry">
            <mxPoint x="535" y="590" as="sourcePoint" />
            <Array as="points">
              <mxPoint x="565" y="620" />
            </Array>
          </mxGeometry>
        </mxCell>
        <mxCell id="knjNOMbDAPtipr0nxzrU-78" value="Neighboor Beholder" style="shape=umlLifeline;perimeter=lifelinePerimeter;whiteSpace=wrap;html=1;container=0;dropTarget=0;collapsible=0;recursiveResize=0;outlineConnect=0;portConstraint=eastwest;newEdgeStyle={&quot;edgeStyle&quot;:&quot;elbowEdgeStyle&quot;,&quot;elbow&quot;:&quot;vertical&quot;,&quot;curved&quot;:0,&quot;rounded&quot;:0};" vertex="1" parent="1">
          <mxGeometry x="635" y="260" width="100" height="170" as="geometry" />
        </mxCell>
        <mxCell id="knjNOMbDAPtipr0nxzrU-79" value="" style="html=1;points=[];perimeter=orthogonalPerimeter;outlineConnect=0;targetShapes=umlLifeline;portConstraint=eastwest;newEdgeStyle={&quot;edgeStyle&quot;:&quot;elbowEdgeStyle&quot;,&quot;elbow&quot;:&quot;vertical&quot;,&quot;curved&quot;:0,&quot;rounded&quot;:0};" vertex="1" parent="knjNOMbDAPtipr0nxzrU-78">
          <mxGeometry x="45" y="120" width="10" height="30" as="geometry" />
        </mxCell>
        <mxCell id="knjNOMbDAPtipr0nxzrU-80" value="" style="html=1;points=[];perimeter=orthogonalPerimeter;outlineConnect=0;targetShapes=umlLifeline;portConstraint=eastwest;newEdgeStyle={&quot;edgeStyle&quot;:&quot;elbowEdgeStyle&quot;,&quot;elbow&quot;:&quot;vertical&quot;,&quot;curved&quot;:0,&quot;rounded&quot;:0};" vertex="1" parent="knjNOMbDAPtipr0nxzrU-78">
          <mxGeometry x="45" y="60" width="10" height="30" as="geometry" />
        </mxCell>
        <mxCell id="knjNOMbDAPtipr0nxzrU-81" value="for neighboor in neighboors" style="shape=umlFrame;whiteSpace=wrap;html=1;pointerEvents=0;width=90;height=30;" vertex="1" parent="1">
          <mxGeometry x="60" y="680" width="270" height="80" as="geometry" />
        </mxCell>
        <mxCell id="knjNOMbDAPtipr0nxzrU-82" value="" style="html=1;points=[];perimeter=orthogonalPerimeter;outlineConnect=0;targetShapes=umlLifeline;portConstraint=eastwest;newEdgeStyle={&quot;edgeStyle&quot;:&quot;elbowEdgeStyle&quot;,&quot;elbow&quot;:&quot;vertical&quot;,&quot;curved&quot;:0,&quot;rounded&quot;:0};" vertex="1" parent="1">
          <mxGeometry x="160" y="710" width="10" height="40" as="geometry" />
        </mxCell>
        <mxCell id="knjNOMbDAPtipr0nxzrU-83" value="transferSpeeds[neighboor]&lt;br&gt;&amp;nbsp;= testPing(neighboor)" style="html=1;align=left;spacingLeft=2;endArrow=block;rounded=0;edgeStyle=orthogonalEdgeStyle;curved=0;rounded=0;" edge="1" parent="1" target="knjNOMbDAPtipr0nxzrU-82">
          <mxGeometry relative="1" as="geometry">
            <mxPoint x="165" y="690" as="sourcePoint" />
            <Array as="points">
              <mxPoint x="195" y="720" />
            </Array>
          </mxGeometry>
        </mxCell>
        <mxCell id="knjNOMbDAPtipr0nxzrU-84" value="Decide the closest machines to have the redundancy copies and virtual tables" style="shape=callout;whiteSpace=wrap;html=1;perimeter=calloutPerimeter;position2=0;size=30;position=0;" vertex="1" parent="1">
          <mxGeometry x="710" y="30" width="140" height="90" as="geometry" />
        </mxCell>
        <mxCell id="knjNOMbDAPtipr0nxzrU-85" value="Closest neighboors in terms of transfer and connection speed" style="shape=callout;whiteSpace=wrap;html=1;perimeter=calloutPerimeter;position2=0;size=30;position=0;base=20;" vertex="1" parent="1">
          <mxGeometry x="760" y="120" width="120" height="70" as="geometry" />
        </mxCell>
        <mxCell id="knjNOMbDAPtipr0nxzrU-86" value="for neighboor in neighboors" style="shape=umlFrame;whiteSpace=wrap;html=1;pointerEvents=0;width=90;height=30;" vertex="1" parent="1">
          <mxGeometry x="420" y="250" width="320" height="260" as="geometry" />
        </mxCell>
        <mxCell id="knjNOMbDAPtipr0nxzrU-87" value="GetVirtualTable()" style="html=1;verticalAlign=bottom;endArrow=block;edgeStyle=elbowEdgeStyle;elbow=vertical;curved=0;rounded=0;" edge="1" parent="1" target="knjNOMbDAPtipr0nxzrU-80">
          <mxGeometry relative="1" as="geometry">
            <mxPoint x="535" y="320" as="sourcePoint" />
            <Array as="points">
              <mxPoint x="610" y="320" />
            </Array>
          </mxGeometry>
        </mxCell>
        <mxCell id="knjNOMbDAPtipr0nxzrU-88" value="neighboorTable" style="html=1;verticalAlign=bottom;endArrow=open;dashed=1;endSize=8;edgeStyle=elbowEdgeStyle;elbow=vertical;curved=0;rounded=0;" edge="1" parent="1" source="knjNOMbDAPtipr0nxzrU-80">
          <mxGeometry relative="1" as="geometry">
            <mxPoint x="535" y="350" as="targetPoint" />
            <Array as="points">
              <mxPoint x="610" y="350" />
            </Array>
          </mxGeometry>
        </mxCell>
        <mxCell id="knjNOMbDAPtipr0nxzrU-89" value="if neighboorTable not None" style="shape=umlFrame;whiteSpace=wrap;html=1;pointerEvents=0;width=100;height=30;" vertex="1" parent="1">
          <mxGeometry x="430" y="360" width="280" height="140" as="geometry" />
        </mxCell>
        <mxCell id="knjNOMbDAPtipr0nxzrU-90" value="" style="shape=umlDestroy;whiteSpace=wrap;html=1;strokeWidth=3;targetShapes=umlLifeline;gradientColor=default;" vertex="1" parent="1">
          <mxGeometry x="670" y="420" width="30" height="30" as="geometry" />
        </mxCell>
        <mxCell id="knjNOMbDAPtipr0nxzrU-91" value="RequestRedundancyInfo()" style="html=1;verticalAlign=bottom;endArrow=block;edgeStyle=elbowEdgeStyle;elbow=vertical;curved=0;rounded=0;" edge="1" parent="1" target="knjNOMbDAPtipr0nxzrU-79">
          <mxGeometry relative="1" as="geometry">
            <mxPoint x="535" y="380" as="sourcePoint" />
            <Array as="points">
              <mxPoint x="610" y="380" />
            </Array>
            <mxPoint as="offset" />
          </mxGeometry>
        </mxCell>
        <mxCell id="knjNOMbDAPtipr0nxzrU-92" value="Info" style="html=1;verticalAlign=bottom;endArrow=open;dashed=1;endSize=8;edgeStyle=elbowEdgeStyle;elbow=vertical;curved=0;rounded=0;" edge="1" parent="1" source="knjNOMbDAPtipr0nxzrU-79">
          <mxGeometry x="-0.0303" relative="1" as="geometry">
            <mxPoint x="535" y="410" as="targetPoint" />
            <Array as="points">
              <mxPoint x="640" y="410" />
              <mxPoint x="610" y="400" />
              <mxPoint x="610" y="540" />
              <mxPoint x="670" y="540" />
              <mxPoint x="680" y="560" />
            </Array>
            <mxPoint as="offset" />
          </mxGeometry>
        </mxCell>
        <mxCell id="knjNOMbDAPtipr0nxzrU-93" value="" style="html=1;points=[];perimeter=orthogonalPerimeter;outlineConnect=0;targetShapes=umlLifeline;portConstraint=eastwest;newEdgeStyle={&quot;edgeStyle&quot;:&quot;elbowEdgeStyle&quot;,&quot;elbow&quot;:&quot;vertical&quot;,&quot;curved&quot;:0,&quot;rounded&quot;:0};" vertex="1" parent="1">
          <mxGeometry x="530" y="450" width="10" height="40" as="geometry" />
        </mxCell>
        <mxCell id="knjNOMbDAPtipr0nxzrU-94" value="storeInfo(Info)" style="html=1;align=left;spacingLeft=2;endArrow=block;rounded=0;edgeStyle=orthogonalEdgeStyle;curved=0;rounded=0;" edge="1" parent="1" target="knjNOMbDAPtipr0nxzrU-93">
          <mxGeometry relative="1" as="geometry">
            <mxPoint x="535" y="430" as="sourcePoint" />
            <Array as="points">
              <mxPoint x="565" y="460" />
            </Array>
          </mxGeometry>
        </mxCell>
        <mxCell id="knjNOMbDAPtipr0nxzrU-98" value="" style="html=1;points=[];perimeter=orthogonalPerimeter;outlineConnect=0;targetShapes=umlLifeline;portConstraint=eastwest;newEdgeStyle={&quot;edgeStyle&quot;:&quot;elbowEdgeStyle&quot;,&quot;elbow&quot;:&quot;vertical&quot;,&quot;curved&quot;:0,&quot;rounded&quot;:0};" vertex="1" parent="1">
          <mxGeometry x="530" y="670" width="10" height="30" as="geometry" />
        </mxCell>
        <mxCell id="knjNOMbDAPtipr0nxzrU-99" value="AxisServerInstance.setTransportProperty(TransportProperty, Handler)" style="html=1;align=left;spacingLeft=2;endArrow=block;rounded=0;edgeStyle=orthogonalEdgeStyle;curved=0;rounded=0;" edge="1" parent="1" target="knjNOMbDAPtipr0nxzrU-98">
          <mxGeometry relative="1" as="geometry">
            <mxPoint x="535" y="650" as="sourcePoint" />
            <Array as="points">
              <mxPoint x="565" y="680" />
            </Array>
          </mxGeometry>
        </mxCell>
        <mxCell id="knjNOMbDAPtipr0nxzrU-101" value="" style="html=1;points=[];perimeter=orthogonalPerimeter;outlineConnect=0;targetShapes=umlLifeline;portConstraint=eastwest;newEdgeStyle={&quot;edgeStyle&quot;:&quot;elbowEdgeStyle&quot;,&quot;elbow&quot;:&quot;vertical&quot;,&quot;curved&quot;:0,&quot;rounded&quot;:0};" vertex="1" parent="1">
          <mxGeometry x="530" y="730" width="10" height="30" as="geometry" />
        </mxCell>
        <mxCell id="knjNOMbDAPtipr0nxzrU-102" value="AxisServerInstance.start()" style="html=1;align=left;spacingLeft=2;endArrow=block;rounded=0;edgeStyle=orthogonalEdgeStyle;curved=0;rounded=0;" edge="1" parent="1" target="knjNOMbDAPtipr0nxzrU-101">
          <mxGeometry relative="1" as="geometry">
            <mxPoint x="535" y="710" as="sourcePoint" />
            <Array as="points">
              <mxPoint x="565" y="740" />
            </Array>
          </mxGeometry>
        </mxCell>
        <mxCell id="knjNOMbDAPtipr0nxzrU-103" value="" style="shape=umlDestroy;whiteSpace=wrap;html=1;strokeWidth=3;targetShapes=umlLifeline;gradientColor=default;" vertex="1" parent="1">
          <mxGeometry x="515" y="770" width="30" height="30" as="geometry" />
        </mxCell>
        <mxCell id="knjNOMbDAPtipr0nxzrU-104" value="Locates neighboor Beholder and contact them with low level sockets&amp;nbsp;" style="shape=callout;whiteSpace=wrap;html=1;perimeter=calloutPerimeter;position2=0;size=30;position=0.07;" vertex="1" parent="1">
          <mxGeometry x="230" y="540" width="150" height="70" as="geometry" />
        </mxCell>
        <mxCell id="knjNOMbDAPtipr0nxzrU-105" value="Axis set servers after declaring domains and server types in C++" style="shape=callout;whiteSpace=wrap;html=1;perimeter=calloutPerimeter;position2=0;size=30;position=0.07;" vertex="1" parent="1">
          <mxGeometry x="670" y="590" width="195" height="65" as="geometry" />
        </mxCell>
        <mxCell id="knjNOMbDAPtipr0nxzrU-106" value="" style="html=1;points=[];perimeter=orthogonalPerimeter;outlineConnect=0;targetShapes=umlLifeline;portConstraint=eastwest;newEdgeStyle={&quot;edgeStyle&quot;:&quot;elbowEdgeStyle&quot;,&quot;elbow&quot;:&quot;vertical&quot;,&quot;curved&quot;:0,&quot;rounded&quot;:0};" vertex="1" parent="1">
          <mxGeometry x="530" y="545" width="10" height="30" as="geometry" />
        </mxCell>
        <mxCell id="knjNOMbDAPtipr0nxzrU-107" value="InstallSOAPSideDependencies()" style="html=1;align=left;spacingLeft=2;endArrow=block;rounded=0;edgeStyle=orthogonalEdgeStyle;curved=0;rounded=0;" edge="1" parent="1" target="knjNOMbDAPtipr0nxzrU-106">
          <mxGeometry relative="1" as="geometry">
            <mxPoint x="535" y="525" as="sourcePoint" />
            <Array as="points">
              <mxPoint x="565" y="555" />
            </Array>
          </mxGeometry>
        </mxCell>
        <mxCell id="knjNOMbDAPtipr0nxzrU-108" value="Bash script to set up Axis, Avro, OpenSSL and PugiXML" style="shape=callout;whiteSpace=wrap;html=1;perimeter=calloutPerimeter;position2=0;size=30;position=0.07;" vertex="1" parent="1">
          <mxGeometry x="750" y="465" width="130" height="75" as="geometry" />
        </mxCell>
      </root>
    </mxGraphModel>
  </diagram>
</mxfile>
